<svg version="1.1" xmlns="http://www.w3.org/2000/svg"
     width="600px" height="1200px">

    <defs>
        <style type="text/css">
            <![CDATA[
                .sprint {
                    fill:           none;
                    stroke:         #5d5d5d;
                    stroke-width:   2;
                }
                .team-labels {
                    font-size:      16px;
                    font-weight:    bold;
                }
                .sprint-labels {
                    font-size:      16px;
                    font-weight:    bold;
                }
                .late {
                    fill:           #da0d0d;
                    stroke-width:   0;
                }
                .sprint-utilization {
                    stroke:         #5d5d5d;
                    fill:           #5d5d5d;
                    stroke-width:   1;
                    font-size:      14px;
                }

                .Project-1 {
                    fill:           #32ee26;
                    stroke-width:   0;
                }
                .Project-2 {
                    fill:           #2ae2f2;
                    stroke-width:   0;
                }
            ]]>
        </style>
    </defs>

    <g class="Project-1">
        <rect height="98" width="18" x="51" y="51"/>
        <rect height="98" width="18" x="51" y="151"/>
        <rect height="98" width="98" x="151" y="251"/>
        <rect height="98" width="83" x="251" y="251"/>
    </g>
    <g class="Project-2">
        <rect height="98" width="18" x="69" y="51"/>
        <rect class="late" height="10" width="18" x="69" y="141"/>
        <rect height="98" width="18" x="69" y="151"/>
        <rect class="late" height="10" width="18" x="69" y="241"/>
        <rect height="98" width="23" x="51" y="251"/>
        <rect class="late" height="10" width="23" x="51" y="341"/>
        <rect height="98" width="98" x="151" y="351"/>
        <rect class="late" height="10" width="98" x="151" y="441"/>
        <rect height="98" width="55" x="151" y="451"/>
        <rect class="late" height="10" width="55" x="151" y="541"/>
        <rect height="98" width="18" x="151" y="551"/>
        <rect class="late" height="10" width="18" x="151" y="641"/>
        <rect height="98" width="98" x="351" y="651"/>
        <rect class="late" height="10" width="98" x="351" y="741"/>
        <rect height="98" width="98" x="351" y="751"/>
        <rect class="late" height="10" width="98" x="351" y="841"/>
        <rect height="98" width="9" x="351" y="851"/>
        <rect class="late" height="10" width="9" x="351" y="941"/>
        <rect height="98" width="98" x="451" y="951"/>
        <rect class="late" height="10" width="98" x="451" y="1041"/>
    </g>

    <g class="team-labels">
        <text x="55" y="30">RE</text>
        <text x="155" y="30">Dev 1</text>
        <text x="255" y="30">Dev 2</text>
        <text x="355" y="30">Dev Ext</text>
        <text x="455" y="30">Ops</text>
    </g>

    <g class="sprint-labels">
        <text x="10" y="110">7.20</text>
        <text x="10" y="210">7.21</text>
        <text x="10" y="310">7.22</text>
        <text x="10" y="410">7.23</text>
        <text x="10" y="510">7.24</text>
        <text x="10" y="610">7.25</text>
        <text x="10" y="710">7.26</text>
        <text x="10" y="810">7.27</text>
        <text x="10" y="910">7.28</text>
        <text x="10" y="1010">7.29</text>
        <text x="10" y="1110">7.30</text>
    </g>

    <g class="sprint">
        <g transform="translate(50, 50)">
            <rect width="100" height="100"/>
            <text class="sprint-utilization" x="5" y="15">10 / 24</text>
        </g>
        <g transform="translate(50, 150)">
            <rect width="100" height="100"/>
            <text class="sprint-utilization" x="5" y="15">10 / 25</text>
        </g>
        <g transform="translate(50, 250)">
            <rect width="100" height="100"/>
            <text class="sprint-utilization" x="5" y="15">5 / 20</text>
        </g>
        <g transform="translate(50, 350)">
            <rect width="100" height="100"/>
            <text class="sprint-utilization" x="5" y="15">0 / 30</text>
        </g>
        <g transform="translate(50, 450)">
            <rect width="100" height="100"/>
            <text class="sprint-utilization" x="5" y="15">0 / 28</text>
        </g>
        <g transform="translate(50, 550)">
            <rect width="100" height="100"/>
            <text class="sprint-utilization" x="5" y="15">0 / 27</text>
        </g>
        <g transform="translate(50, 650)">
            <rect width="100" height="100"/>
            <text class="sprint-utilization" x="5" y="15">0 / 27</text>
        </g>
        <g transform="translate(50, 750)">
            <rect width="100" height="100"/>
            <text class="sprint-utilization" x="5" y="15">0 / 27</text>
        </g>
        <g transform="translate(50, 850)">
            <rect width="100" height="100"/>
            <text class="sprint-utilization" x="5" y="15">0 / 27</text>
        </g>
        <g transform="translate(50, 950)">
            <rect width="100" height="100"/>
            <text class="sprint-utilization" x="5" y="15">0 / 27</text>
        </g>
        <g transform="translate(50, 1050)">
            <rect width="100" height="100"/>
            <text class="sprint-utilization" x="5" y="15">0 / 27</text>
        </g>
        <g transform="translate(150, 50)">
            <rect width="100" height="100"/>
            <text class="sprint-utilization" x="5" y="15">0 / 45</text>
        </g>
        <g transform="translate(150, 150)">
            <rect width="100" height="100"/>
            <text class="sprint-utilization" x="5" y="15">0 / 48</text>
        </g>
        <g transform="translate(150, 250)">
            <rect width="100" height="100"/>
            <text class="sprint-utilization" x="5" y="15">50 / 50</text>
        </g>
        <g transform="translate(150, 350)">
            <rect width="100" height="100"/>
            <text class="sprint-utilization" x="5" y="15">40 / 40</text>
        </g>
        <g transform="translate(150, 450)">
            <rect width="100" height="100"/>
            <text class="sprint-utilization" x="5" y="15">30 / 52</text>
        </g>
        <g transform="translate(150, 550)">
            <rect width="100" height="100"/>
            <text class="sprint-utilization" x="5" y="15">10 / 50</text>
        </g>
        <g transform="translate(150, 650)">
            <rect width="100" height="100"/>
            <text class="sprint-utilization" x="5" y="15">0 / 50</text>
        </g>
        <g transform="translate(150, 750)">
            <rect width="100" height="100"/>
            <text class="sprint-utilization" x="5" y="15">0 / 50</text>
        </g>
        <g transform="translate(150, 850)">
            <rect width="100" height="100"/>
            <text class="sprint-utilization" x="5" y="15">0 / 52</text>
        </g>
        <g transform="translate(150, 950)">
            <rect width="100" height="100"/>
            <text class="sprint-utilization" x="5" y="15">0 / 52</text>
        </g>
        <g transform="translate(150, 1050)">
            <rect width="100" height="100"/>
            <text class="sprint-utilization" x="5" y="15">0 / 52</text>
        </g>
        <g transform="translate(250, 50)">
            <rect width="100" height="100"/>
            <text class="sprint-utilization" x="5" y="15">0 / 35</text>
        </g>
        <g transform="translate(250, 150)">
            <rect width="100" height="100"/>
            <text class="sprint-utilization" x="5" y="15">0 / 36</text>
        </g>
        <g transform="translate(250, 250)">
            <rect width="100" height="100"/>
            <text class="sprint-utilization" x="5" y="15">30 / 35</text>
        </g>
        <g transform="translate(250, 350)">
            <rect width="100" height="100"/>
            <text class="sprint-utilization" x="5" y="15">0 / 39</text>
        </g>
        <g transform="translate(250, 450)">
            <rect width="100" height="100"/>
            <text class="sprint-utilization" x="5" y="15">0 / 42</text>
        </g>
        <g transform="translate(250, 550)">
            <rect width="100" height="100"/>
            <text class="sprint-utilization" x="5" y="15">0 / 20</text>
        </g>
        <g transform="translate(250, 650)">
            <rect width="100" height="100"/>
            <text class="sprint-utilization" x="5" y="15">0 / 27</text>
        </g>
        <g transform="translate(250, 750)">
            <rect width="100" height="100"/>
            <text class="sprint-utilization" x="5" y="15">0 / 27</text>
        </g>
        <g transform="translate(250, 850)">
            <rect width="100" height="100"/>
            <text class="sprint-utilization" x="5" y="15">0 / 27</text>
        </g>
        <g transform="translate(250, 950)">
            <rect width="100" height="100"/>
            <text class="sprint-utilization" x="5" y="15">0 / 27</text>
        </g>
        <g transform="translate(250, 1050)">
            <rect width="100" height="100"/>
            <text class="sprint-utilization" x="5" y="15">0 / 27</text>
        </g>
        <g transform="translate(350, 50)">
            <rect width="100" height="100"/>
            <text class="sprint-utilization" x="5" y="15">0 / 40</text>
        </g>
        <g transform="translate(350, 150)">
            <rect width="100" height="100"/>
            <text class="sprint-utilization" x="5" y="15">0 / 40</text>
        </g>
        <g transform="translate(350, 250)">
            <rect width="100" height="100"/>
            <text class="sprint-utilization" x="5" y="15">0 / 40</text>
        </g>
        <g transform="translate(350, 350)">
            <rect width="100" height="100"/>
            <text class="sprint-utilization" x="5" y="15">0 / 40</text>
        </g>
        <g transform="translate(350, 450)">
            <rect width="100" height="100"/>
            <text class="sprint-utilization" x="5" y="15">0 / 52</text>
        </g>
        <g transform="translate(350, 550)">
            <rect width="100" height="100"/>
            <text class="sprint-utilization" x="5" y="15">0 / 38</text>
        </g>
        <g transform="translate(350, 650)">
            <rect width="100" height="100"/>
            <text class="sprint-utilization" x="5" y="15">30 / 30</text>
        </g>
        <g transform="translate(350, 750)">
            <rect width="100" height="100"/>
            <text class="sprint-utilization" x="5" y="15">35 / 35</text>
        </g>
        <g transform="translate(350, 850)">
            <rect width="100" height="100"/>
            <text class="sprint-utilization" x="5" y="15">5 / 45</text>
        </g>
        <g transform="translate(350, 950)">
            <rect width="100" height="100"/>
            <text class="sprint-utilization" x="5" y="15">0 / 45</text>
        </g>
        <g transform="translate(350, 1050)">
            <rect width="100" height="100"/>
            <text class="sprint-utilization" x="5" y="15">0 / 45</text>
        </g>
        <g transform="translate(450, 50)">
            <rect width="100" height="100"/>
            <text class="sprint-utilization" x="5" y="15">0 / 20</text>
        </g>
        <g transform="translate(450, 150)">
            <rect width="100" height="100"/>
            <text class="sprint-utilization" x="5" y="15">0 / 20</text>
        </g>
        <g transform="translate(450, 250)">
            <rect width="100" height="100"/>
            <text class="sprint-utilization" x="5" y="15">0 / 20</text>
        </g>
        <g transform="translate(450, 350)">
            <rect width="100" height="100"/>
            <text class="sprint-utilization" x="5" y="15">0 / 20</text>
        </g>
        <g transform="translate(450, 450)">
            <rect width="100" height="100"/>
            <text class="sprint-utilization" x="5" y="15">0 / 20</text>
        </g>
        <g transform="translate(450, 550)">
            <rect width="100" height="100"/>
            <text class="sprint-utilization" x="5" y="15">0 / 20</text>
        </g>
        <g transform="translate(450, 650)">
            <rect width="100" height="100"/>
            <text class="sprint-utilization" x="5" y="15">0 / 25</text>
        </g>
        <g transform="translate(450, 750)">
            <rect width="100" height="100"/>
            <text class="sprint-utilization" x="5" y="15">0 / 25</text>
        </g>
        <g transform="translate(450, 850)">
            <rect width="100" height="100"/>
            <text class="sprint-utilization" x="5" y="15">0 / 25</text>
        </g>
        <g transform="translate(450, 950)">
            <rect width="100" height="100"/>
            <text class="sprint-utilization" x="5" y="15">25 / 25</text>
        </g>
        <g transform="translate(450, 1050)">
            <rect width="100" height="100"/>
            <text class="sprint-utilization" x="5" y="15">0 / 25</text>
        </g>
    </g>

</svg>
